<?xml version="1.0" standalone="no"?>
<!DOCTYPE svg PUBLIC "-//W3C//DTD SVG 20010904//EN"
 "http://www.w3.org/TR/2001/REC-SVG-20010904/DTD/svg10.dtd">
<svg version="1.0" xmlns="http://www.w3.org/2000/svg"
 width="192.000000pt" height="192.000000pt" viewBox="0 0 192.000000 192.000000"
 preserveAspectRatio="xMidYMid meet">
<metadata>
Created by potrace 1.11, written by Peter Selinger 2001-2013
</metadata>
<g transform="translate(0.000000,192.000000) scale(0.100000,-0.100000)"
fill="#000000" stroke="none">
<path d="M1015 1879 c-153 -12 -395 -38 -483 -51 -67 -10 -77 -14 -112 -52
-63 -67 -212 -259 -250 -322 l-35 -58 -2 -421 -2 -420 65 -197 c36 -108 74
-208 85 -222 l20 -26 582 0 c679 0 751 7 905 85 l54 27 -5 466 c-3 257 -8 481
-11 497 -5 24 -4 26 4 10 7 -14 9 81 7 298 l-2 319 -23 19 c-56 44 -111 52
-407 55 -154 1 -329 -2 -390 -7z m-585 -153 c0 -2 -8 -10 -17 -17 -16 -13 -17
-12 -4 4 13 16 21 21 21 13z m1317 -38 c-3 -7 -5 -2 -5 12 0 14 2 19 5 13 2
-7 2 -19 0 -25z m-1367 -32 c0 -2 -8 -10 -17 -17 -16 -13 -17 -12 -4 4 13 16
21 21 21 13z m1377 -33 c-3 -10 -5 -4 -5 12 0 17 2 24 5 18 2 -7 2 -21 0 -30z
m-1407 -7 c0 -2 -8 -10 -17 -17 -16 -13 -17 -12 -4 4 13 16 21 21 21 13z
m1417 -58 c-3 -7 -5 -2 -5 12 0 14 2 19 5 13 2 -7 2 -19 0 -25z m-1152 -35
l37 -48 69 -1 c62 0 72 -3 100 -30 38 -36 59 -75 59 -109 0 -20 16 -42 63 -85
67 -64 105 -81 119 -56 5 9 16 16 24 16 23 0 29 -29 8 -45 -17 -13 -14 -14 34
-15 l52 0 2 53 2 52 3 -52 c4 -50 6 -53 31 -54 l27 -2 -27 -4 c-27 -4 -28 -7
-28 -64 0 -54 3 -62 33 -89 17 -16 38 -30 45 -30 7 0 11 -4 8 -9 -3 -5 19 -32
49 -59 30 -28 55 -57 55 -64 0 -8 31 -42 69 -76 65 -58 101 -107 101 -139 0
-7 -4 -13 -8 -13 -12 0 -65 40 -135 103 -35 31 -70 57 -78 57 -7 0 -42 28 -76
62 l-63 62 0 -68 c0 -38 -3 -66 -7 -63 -3 4 -5 36 -4 71 l2 63 -76 69 -77 70
-43 -41 -42 -40 19 -37 c10 -21 23 -38 28 -38 6 0 10 -7 10 -15 0 -8 27 -66
60 -129 34 -63 60 -118 58 -122 -2 -8 33 -78 61 -124 6 -8 16 -28 24 -45 7
-16 20 -40 27 -52 18 -28 6 -41 -18 -20 -10 10 -22 14 -25 10 -4 -3 -7 1 -7
10 0 8 -9 18 -20 22 -11 3 -36 35 -55 69 -19 35 -44 71 -55 81 -11 10 -43 57
-71 104 -27 47 -54 93 -59 101 -6 8 -28 46 -50 84 l-39 69 -62 4 c-33 1 -65 5
-70 9 -15 9 -10 36 16 93 l26 54 -26 38 c-14 21 -25 43 -25 49 0 5 -6 10 -14
10 -21 0 -74 47 -91 81 -19 36 -19 102 -1 138 14 26 13 29 -25 77 -21 27 -39
54 -39 61 0 12 38 43 52 43 4 0 23 -21 43 -47z m575 37 c0 -5 -2 -10 -4 -10
-3 0 -8 5 -11 10 -3 6 -1 10 4 10 6 0 11 -4 11 -10z m-193 -22 c-3 -8 -6 -5
-6 6 -1 11 2 17 5 13 3 -3 4 -12 1 -19z m-697 8 c0 -2 -8 -10 -17 -17 -16 -13
-17 -12 -4 4 13 16 21 21 21 13z m1477 -48 c-3 -7 -5 -2 -5 12 0 14 2 19 5 13
2 -7 2 -19 0 -25z m10 -65 c-3 -10 -5 -4 -5 12 0 17 2 24 5 18 2 -7 2 -21 0
-30z m10 -65 c-3 -7 -5 -2 -5 12 0 14 2 19 5 13 2 -7 2 -19 0 -25z m10 -60
c-3 -7 -5 -2 -5 12 0 14 2 19 5 13 2 -7 2 -19 0 -25z m10 -65 c-3 -10 -5 -4
-5 12 0 17 2 24 5 18 2 -7 2 -21 0 -30z m-817 -289 c0 -8 -5 -12 -10 -9 -6 4
-8 11 -5 16 9 14 15 11 15 -7z m97 0 c-3 -3 -12 -4 -19 -1 -8 3 -5 6 6 6 11 1
17 -2 13 -5z m470 0 c-3 -3 -12 -4 -19 -1 -8 3 -5 6 6 6 11 1 17 -2 13 -5z
m-757 -188 c0 -3 -4 -8 -10 -11 -5 -3 -10 -1 -10 4 0 6 5 11 10 11 6 0 10 -2
10 -4z m-541 -451 c0 -5 -8 6 -19 25 -11 19 -19 40 -19 45 0 6 8 -6 19 -25 11
-19 19 -39 19 -45z m1531 -80 c-19 -7 -42 -13 -50 -13 -8 0 1 6 20 13 19 7 42
13 50 13 8 0 -1 -6 -20 -13z m-101 -29 c-2 -1 -19 -8 -36 -14 -37 -12 -45 -6
-10 8 22 9 54 13 46 6z"/>
<path d="M672 1382 c-50 -42 -43 -110 15 -140 35 -19 63 -14 94 17 44 44 35
116 -18 140 -36 17 -55 13 -91 -17z"/>
<path d="M840 1266 c0 -20 -54 -63 -89 -71 l-30 -6 31 -57 c33 -60 44 -72 66
-72 9 0 4 16 -14 48 -29 53 -27 82 6 82 11 0 20 6 20 14 0 7 6 19 13 25 11 8
26 0 66 -34 78 -67 85 -54 11 20 -66 67 -80 76 -80 51z"/>
<path d="M852 1165 c-11 -13 -9 -15 14 -15 22 0 25 2 14 15 -15 18 -12 18 -28
0z"/>
<path d="M840 1132 c0 -4 7 -18 16 -30 15 -22 16 -22 44 -5 22 13 27 20 18 30
-11 14 -78 18 -78 5z"/>
<path d="M1080 1135 c0 -10 82 -95 91 -95 5 0 9 23 9 50 l0 50 -50 0 c-27 0
-50 -2 -50 -5z"/>
<path d="M922 1048 c-44 -45 -78 -85 -76 -88 3 -3 42 33 86 78 44 46 78 85 75
88 -2 3 -41 -32 -85 -78z"/>
<path d="M970 1047 c-30 -34 -44 -53 -30 -42 27 23 100 96 100 102 0 13 -22
-7 -70 -60z"/>
<path d="M1056 1071 c-6 -9 101 -111 116 -111 19 0 4 21 -51 69 -33 28 -62 47
-65 42z"/>
<path d="M825 999 c-28 -28 -41 -47 -30 -41 26 14 102 92 89 92 -5 0 -32 -23
-59 -51z"/>
<path d="M772 995 c-20 -19 -32 -35 -27 -35 6 0 25 16 44 35 42 45 32 45 -17
0z"/>
<path d="M1190 947 c0 -19 137 -141 144 -129 3 5 -28 39 -69 76 -42 38 -75 61
-75 53z"/>
<path d="M877 932 c-7 -10 108 -204 116 -195 4 3 7 -2 7 -11 0 -22 50 -116 62
-116 4 0 8 4 8 9 0 10 -68 133 -78 141 -4 3 -8 11 -10 19 -5 24 -84 161 -92
161 -5 0 -11 -3 -13 -8z"/>
<path d="M1365 780 c3 -5 8 -10 11 -10 2 0 4 5 4 10 0 6 -5 10 -11 10 -5 0 -7
-4 -4 -10z"/>
<path d="M1415 730 c3 -5 8 -10 11 -10 2 0 4 5 4 10 0 6 -5 10 -11 10 -5 0 -7
-4 -4 -10z"/>
<path d="M1440 710 c0 -5 5 -10 11 -10 5 0 7 5 4 10 -3 6 -8 10 -11 10 -2 0
-4 -4 -4 -10z"/>
<path d="M1470 679 c0 -5 5 -7 10 -4 6 3 10 8 10 11 0 2 -4 4 -10 4 -5 0 -10
-5 -10 -11z"/>
<path d="M1090 549 c0 -5 5 -7 10 -4 6 3 10 8 10 11 0 2 -4 4 -10 4 -5 0 -10
-5 -10 -11z"/>
<path d="M1110 519 c0 -5 5 -7 10 -4 6 3 10 8 10 11 0 2 -4 4 -10 4 -5 0 -10
-5 -10 -11z"/>
<path d="M1145 461 c-3 -5 -1 -12 5 -16 5 -3 10 1 10 9 0 18 -6 21 -15 7z"/>
</g>
</svg>
